HIERARCHY
ROOT hip
{
  OFFSET 0 0 0
  CHANNELS 6 Xposition Yposition Zposition Zrotation Yrotation Xrotation
  JOINT abdomen
  {
    OFFSET 0 20.6881 -0.73152
    CHANNELS 3 Zrotation Xrotation Yrotation
    JOINT chest
    {
      OFFSET 0 11.7043 -0.48768
      CHANNELS 3 Zrotation Xrotation Yrotation
      JOINT neck
      {
        OFFSET 0 22.1894 -2.19456
        CHANNELS 3 Zrotation Xrotation Yrotation
        JOINT head
        {
          OFFSET -0.24384 7.07133 1.2192
          CHANNELS 3 Zrotation Xrotation Yrotation
          JOINT leftEye
          {
            OFFSET 4.14528 8.04674 8.04672
            CHANNELS 3 Zrotation Xrotation Yrotation
            End Site
            {
              OFFSET 1 0 0
            }
          }
          JOINT rightEye
          {
            OFFSET -3.6576 8.04674 8.04672
            CHANNELS 3 Zrotation Xrotation Yrotation
            End Site
            {
              OFFSET 1 0 0
            }
          }
        }
      }
      JOINT rCollar
      {
        OFFSET -2.68224 19.2634 -4.8768
        CHANNELS 3 Zrotation Xrotation Yrotation
        JOINT rShldr
        {
          OFFSET -8.77824 -1.95073 1.46304
          CHANNELS 3 Zrotation Xrotation Yrotation
          JOINT rForeArm
          {
            OFFSET -28.1742 -1.7115 0.48768
            CHANNELS 3 Zrotation Xrotation Yrotation
            JOINT rHand
            {
              OFFSET -22.5879 0.773209 7.07136
              CHANNELS 3 Zrotation Xrotation Yrotation
              JOINT rThumb1
              {
                OFFSET -1.2192 -0.487915 3.41376
                CHANNELS 3 Zrotation Xrotation Yrotation
                JOINT rThumb2
                {
                  OFFSET -3.37035 -0.52449 3.41376
                  CHANNELS 3 Zrotation Xrotation Yrotation
                  End Site
                  {
                    OFFSET -1.78271 -1.18214 1.43049
                  }
                }
              }
              JOINT rIndex1
              {
                OFFSET -7.75947 0.938293 5.60832
                CHANNELS 3 Zrotation Xrotation Yrotation
                JOINT rIndex2
                {
                  OFFSET -2.54057 -0.884171 1.56538
                  CHANNELS 3 Zrotation Xrotation Yrotation
                  End Site
                  {
                    OFFSET -1.62519 -0.234802 1.16502
                  }
                }
              }
              JOINT rMid1
              {
                OFFSET -8.24714 1.18213 3.41376
                CHANNELS 3 Zrotation Xrotation Yrotation
                JOINT rMid2
                {
                  OFFSET -3.10165 -0.590103 1.0647
                  CHANNELS 3 Zrotation Xrotation Yrotation
                  End Site
                  {
                    OFFSET -2.48547 -0.328903 0.83742
                  }
                }
              }
              JOINT rRing1
              {
                OFFSET -8.82822 0.546677 1.51678
                CHANNELS 3 Zrotation Xrotation Yrotation
                JOINT rRing2
                {
                  OFFSET -2.60934 -0.819778 -0.0198488
                  CHANNELS 3 Zrotation Xrotation Yrotation
                  End Site
                  {
                    OFFSET -2.33842 -0.294052 0.168128
                  }
                }
              }
              JOINT rPinky1
              {
                OFFSET -8.27202 -0.0477905 -0.4584
                CHANNELS 3 Zrotation Xrotation Yrotation
                JOINT rPinky2
                {
                  OFFSET -1.82734 -0.647385 -0.700984
                  CHANNELS 3 Zrotation Xrotation Yrotation
                  End Site
                  {
                    OFFSET -1.69225 -0.51767 -0.607171
                  }
                }
              }
            }
          }
        }
      }
      JOINT lCollar
      {
        OFFSET 2.68224 19.2634 -4.8768
        CHANNELS 3 Zrotation Xrotation Yrotation
        JOINT lShldr
        {
          OFFSET 8.77824 -1.95073 1.46304
          CHANNELS 3 Zrotation Xrotation Yrotation
          JOINT lForeArm
          {
            OFFSET 28.1742 -1.7115 0.48768
            CHANNELS 3 Zrotation Xrotation Yrotation
            JOINT lHand
            {
              OFFSET 22.5879 0.773209 7.07136
              CHANNELS 3 Zrotation Xrotation Yrotation
              JOINT lThumb1
              {
                OFFSET 1.2192 -0.487915 3.41376
                CHANNELS 3 Zrotation Xrotation Yrotation
                JOINT lThumb2
                {
                  OFFSET 3.37035 -0.52449 3.41376
                  CHANNELS 3 Zrotation Xrotation Yrotation
                  End Site
                  {
                    OFFSET 1.78271 -1.18214 1.43049
                  }
                }
              }
              JOINT lIndex1
              {
                OFFSET 7.75947 0.938293 5.60832
                CHANNELS 3 Zrotation Xrotation Yrotation
                JOINT lIndex2
                {
                  OFFSET 2.54057 -0.884171 1.56538
                  CHANNELS 3 Zrotation Xrotation Yrotation
                  End Site
                  {
                    OFFSET 1.62519 -0.234802 1.16502
                  }
                }
              }
              JOINT lMid1
              {
                OFFSET 8.24714 1.18213 3.41376
                CHANNELS 3 Zrotation Xrotation Yrotation
                JOINT lMid2
                {
                  OFFSET 3.10165 -0.590103 1.0647
                  CHANNELS 3 Zrotation Xrotation Yrotation
                  End Site
                  {
                    OFFSET 2.48547 -0.328903 0.83742
                  }
                }
              }
              JOINT lRing1
              {
                OFFSET 8.82822 0.546677 1.51678
                CHANNELS 3 Zrotation Xrotation Yrotation
                JOINT lRing2
                {
                  OFFSET 2.60934 -0.819778 -0.0198488
                  CHANNELS 3 Zrotation Xrotation Yrotation
                  End Site
                  {
                    OFFSET 2.33842 -0.294052 0.168128
                  }
                }
              }
              JOINT lPinky1
              {
                OFFSET 8.27202 -0.0477905 -0.4584
                CHANNELS 3 Zrotation Xrotation Yrotation
                JOINT lPinky2
                {
                  OFFSET 1.82734 -0.647385 -0.700984
                  CHANNELS 3 Zrotation Xrotation Yrotation
                  End Site
                  {
                    OFFSET 1.69225 -0.51767 -0.607171
                  }
                }
              }
            }
          }
        }
      }
    }
  }
  JOINT rButtock
  {
    OFFSET -8.77824 4.35084 1.2192
    CHANNELS 3 Zrotation Xrotation Yrotation
    JOINT rThigh
    {
      OFFSET 0 -1.70687 -2.19456
      CHANNELS 3 Zrotation Xrotation Yrotation
      JOINT rShin
      {
        OFFSET 0 -36.8199 0.73152
        CHANNELS 3 Zrotation Xrotation Yrotation
        JOINT rFoot
        {
          OFFSET 0.73152 -45.1104 -5.12064
          CHANNELS 3 Zrotation Xrotation Yrotation
          End Site
          {
            OFFSET -1.1221 -3.69964 12.103
          }
        }
      }
    }
  }
  JOINT lButtock
  {
    OFFSET 8.77824 4.35084 1.2192
    CHANNELS 3 Zrotation Xrotation Yrotation
    JOINT lThigh
    {
      OFFSET 0 -1.70687 -2.19456
      CHANNELS 3 Zrotation Xrotation Yrotation
      JOINT lShin
      {
        OFFSET 0 -36.8199 0.73152
        CHANNELS 3 Zrotation Xrotation Yrotation
        JOINT lFoot
        {
          OFFSET -0.73152 -45.1104 -5.12064
          CHANNELS 3 Zrotation Xrotation Yrotation
          End Site
          {
            OFFSET 1.1221 -3.69964 12.103
          }
        }
      }
    }
  }
}
MOTION
Frames:	5
Frame Time:	0.03333
-58.6458 57.709999999999994 -58.0292 158.775822 -63.964968 -157.59001 -18.40971 11.371313 -0.0 6.092171 -8.220981 -1.601565 4.150106 35.487974 157.154482 -15.100742 44.088865 176.341773 0.003233 0.0 0.005495 0.002442 -0.0 -0.002371 0.133493 -0.807167 -0.178198 -45.155132 84.237973 101.309339 -67.801572 7.457369 -18.509424 36.992139 -57.699937 25.889951 -93.743724 37.96386 53.54852 42.525706 -37.952791 24.368965 -26.600571 30.072698 19.414814 103.922562 -62.714534 52.622743 8.397431 -26.36791 -3.091866 80.542873 -77.984754 52.172854 -73.164171 -72.142292 -90.19821 14.115322 26.538294 -1.05728 -123.037338 -31.103957 -120.854966 4.423641 3.382266 -0.596223 155.809051 -5.555375 -162.267009 128.805172 -84.157592 80.757691 65.601184 -81.83454 33.410166 4.771195 31.86607 -2.828799 178.926758 -16.453928 -89.422925 -179.574244 -16.83701 -98.715937 140.684137 1.50549 -116.182779 13.692963 35.377418 -3.149174 0.568977 1.648804 -0.321062 162.989225 -3.908972 -143.25951 0.008436 3.559221 -1.118358 140.650973 60.468891 -154.517891 -26.978455 80.122138 -10.134255 11.926378 -26.292571 12.681943 179.995791 75.748185 0.002879 152.362881 3.794119 1.390014 -43.873295 72.69217 -55.443398 2.336007 61.68298 94.590443 0.00112 -0.000215 0.001679 6.307922 9.174129 145.265368 33.989638 -28.590008 101.090713 -91.549523 37.302283 -164.489002
-58.9095 57.5502 -58.140800000000006 157.894024 -63.682876 -156.736972 -16.533212 8.234889 -104.850274 4.027284 5.009055 102.201598 -13.224321 25.506531 -66.477987 37.795102 -2.534787 37.661612 -0.00073 0.0 -0.001964 -0.000118 -0.0 0.002849 0.163204 -0.989953 -0.219333 -119.655043 1.807179 176.005536 177.851316 -2.961153 -124.638847 -10.854123 38.830726 3.159811 -164.698723 -2.371853 89.58514 -25.770229 -33.164316 8.079445 -93.640856 40.180998 78.832762 -3.033405 14.703716 -2.236052 68.98681 -80.152993 40.580845 3.293685 -0.801538 0.061621 -0.002135 -0.100353 -0.033909 -155.406868 -1.161884 171.983448 -148.680626 23.977225 -144.84087 -151.309672 22.453851 -143.934096 85.537616 68.181495 -88.688765 109.814802 15.429291 -93.081226 -104.45136 41.87429 92.706705 150.913532 70.22019 -131.727327 10.082762 9.553995 -2.36717 65.755116 23.322827 -62.541898 44.140271 38.975989 -34.491799 -94.998214 -63.426597 -46.083378 8.30565 20.652615 -5.560816 88.643978 64.06813 -80.451599 145.117565 0.26719 179.213565 126.111914 -69.895207 147.940394 -7.927381 24.811755 -7.002883 166.813433 70.902229 148.393244 0.003969 0.000279 0.003969 -61.208687 -58.862442 -166.759169 -73.987882 -19.242584 167.63057 -78.642831 51.333378 6.650776 -0.0 -0.000903 -0.00019 6.600247 12.086225 -1.2591 1.335787 41.724554 133.917926 -33.924254 -10.470432 -105.718154
-59.19649999999999 57.5713 -58.17250000000001 158.07083 -63.754765 -156.678387 -16.497585 8.363291 -93.182682 5.393468 3.942537 90.271259 5.837515 34.827072 145.691191 -22.854272 40.480579 -170.408671 -0.001985 -0.0 0.002554 -0.001985 -0.0 0.002554 4.231281 -44.380045 -8.574158 -104.195152 -45.288141 -140.721675 -77.388536 -21.707713 -120.61158 44.090147 -61.18505 32.411427 -171.70573 -9.388675 89.94814 -156.227969 1.658478 81.676301 -117.899035 27.949707 99.679279 175.209619 -43.919697 111.367937 89.035574 -81.392481 59.758352 29.504059 -60.172192 6.790622 -145.099844 -1.521539 -178.648841 12.089371 52.749693 -2.725372 -43.36309 -47.547072 -42.161307 10.996845 24.069704 5.210908 158.515153 -30.702206 -167.038055 40.97267 10.1184 25.442718 64.053289 -48.120627 114.976186 -74.919037 -65.81828 -63.382359 -1.841973 -1.827264 0.25553 123.106217 -13.435598 -110.783952 152.104577 -18.55608 -121.369392 87.705467 56.545105 -69.343344 -0.046476 -0.138745 0.02703 4.952247 21.320702 -4.411205 145.120523 2.055442 179.773116 152.553675 -24.961518 175.356304 129.566811 -22.76911 127.192049 -3.04918 0.1558 1.691822 -0.002749 -0.000463 -0.001374 -62.213858 -56.542952 -0.0 68.416418 31.804219 -32.390947 -60.35942 24.04342 -0.43117 -179.992617 75.748428 -0.006075 -121.215813 82.249038 120.983224 12.676607 -38.61192 80.433603 -121.201233 44.550615 -149.398252
-59.4097 57.489000000000004 -58.1553 157.875035 -63.734141 -156.568262 -18.757036 10.825267 -0.0 5.981769 -7.920834 -1.701442 -14.097215 26.519455 -72.866627 38.823293 2.242855 42.617321 0.004784 -0.0 -0.000998 -0.001084 0.0 -0.003451 -155.613827 -4.236535 161.9907 -165.990053 73.164522 131.919559 -30.361437 68.860422 88.313817 -4.764702 21.540332 1.061067 -171.60345 -9.286307 89.949398 -141.807082 8.538 72.049979 24.077756 -42.305906 -5.55657 -84.352294 49.01862 69.629624 -89.834827 60.701563 81.262907 -7.212882 26.185078 6.248194 -70.379838 -72.130118 -87.280008 14.726412 0.857961 -4.41361 -118.628645 -35.449141 -116.544042 -147.434865 14.067716 -142.70794 159.220009 -48.028459 -170.415549 -112.474786 40.801041 130.461063 80.199101 40.271144 -83.12971 -15.525725 -29.201771 -9.507392 -11.509297 -11.486998 0.622224 31.756334 26.412064 -22.18797 108.427444 34.161074 -91.743086 119.968426 44.063005 -92.189381 170.282189 -36.723135 -145.340436 161.34051 1.275588 -142.251112 66.264438 72.867655 -83.837541 159.52872 -14.85965 -178.024192 -12.253899 41.424838 -10.278296 23.59387 -39.934838 23.70514 -0.006315 0.001449 -0.006315 -62.723147 -56.797727 26.192094 77.05552 4.466949 4.045046 -153.369295 -27.018815 100.149432 0.000469 -0.000227 -0.000603 8.094067 11.243538 -110.329145 -28.495433 -18.311061 56.330696 152.544914 55.273437 -58.935088
-59.5709 57.4113 -58.148599999999995 157.719422 -63.77757 -156.463879 -16.809224 8.252027 -92.710215 5.266454 3.706424 89.893794 -14.304195 29.382254 -88.687181 40.127386 12.097595 55.201802 -0.002619 -0.0 0.001599 0.003072 0.0 0.000965 -157.880575 -65.637906 175.444751 -172.657917 -23.637341 -147.150718 17.09381 87.473535 -104.450438 163.148643 -29.238883 141.543766 -169.319652 -7.000737 89.922687 -69.244076 0.210867 21.146 10.211174 -18.050911 -4.561565 -7.678579 26.185312 7.950889 -160.098474 -4.90109 142.96897 -42.490315 58.274854 36.598772 0.002871 0.60569 0.190592 9.306364 11.533296 1.489084 -145.543348 13.245248 -142.148043 -147.100244 10.310504 -141.362647 33.83459 -85.66591 55.251969 -98.491885 39.241896 81.325602 2.012161 10.310242 -37.384561 5.986659 32.687282 -2.572078 176.597677 -14.213419 -89.690841 116.296335 16.331622 -53.966621 -159.644521 -69.973911 -102.399853 151.333423 -4.807 -117.042492 89.835615 60.701913 -81.262619 151.511415 24.856194 -136.983336 0.020124 -1.725144 0.542577 6.040978 62.275064 -18.851844 -7.649645 23.805949 -6.773456 5.527059 -17.534348 6.795469 179.995063 75.750316 0.004356 151.5806 2.871081 0.937613 -47.257302 71.927585 -38.635074 10.215588 5.435574 94.985784 -0.010416 0.000281 -0.005208 7.658183 11.466012 -109.807434 -27.793903 -14.870615 84.00077 -44.134428 -71.916299 25.189712
